<?xml version="1.0" standalone="no"?>
<!DOCTYPE svg PUBLIC "-//W3C//DTD SVG 20010904//EN"
 "http://www.w3.org/TR/2001/REC-SVG-20010904/DTD/svg10.dtd">
<svg version="1.0" xmlns="http://www.w3.org/2000/svg"
 width="400.000000pt" height="400.000000pt" viewBox="0 0 400.000000 400.000000"
 preserveAspectRatio="xMidYMid meet">
<metadata>
Created by potrace 1.14, written by Peter Selinger 2001-2017
</metadata>
<g transform="translate(0.000000,400.000000) scale(0.100000,-0.100000)"
fill="#000000" stroke="none">
<path d="M1838 3505 c-2 -2 -25 -6 -53 -9 -111 -15 -284 -63 -385 -109 -25
-11 -61 -27 -81 -36 -152 -69 -350 -227 -482 -387 -74 -89 -65 -77 -119 -164
-84 -135 -147 -286 -187 -445 -30 -121 -32 -147 -36 -325 -4 -194 16 -330 71
-499 36 -109 118 -282 160 -338 13 -17 24 -35 24 -38 0 -6 26 -40 95 -124 39
-47 131 -138 190 -188 68 -57 207 -153 222 -153 6 0 16 -7 23 -15 6 -8 15 -14
18 -12 4 1 36 -12 72 -29 81 -39 227 -89 300 -103 30 -6 64 -12 75 -14 126
-27 359 -25 518 3 172 31 408 119 505 189 17 11 33 21 36 21 4 0 12 4 19 10 7
5 41 31 77 57 60 43 222 200 279 269 52 62 135 199 182 299 53 113 113 305
123 396 4 31 9 67 12 80 15 75 2 380 -21 459 -2 8 -7 30 -10 49 -17 98 -113
332 -181 439 -19 29 -34 56 -34 61 0 5 -3 11 -7 13 -5 2 -21 21 -38 43 -67 91
-260 285 -282 285 -7 0 -13 4 -13 8 0 7 -104 81 -154 108 -257 143 -485 202
-773 202 -78 -1 -144 -2 -145 -3z"/>
</g>
</svg>
